<?xml version="1.0" encoding="utf-8"?>
<!-- Generator: Adobe Illustrator 22.0.1, SVG Export Plug-In . SVG Version: 6.00 Build 0)  -->
<svg version="1.1" id="Layer_1" xmlns="http://www.w3.org/2000/svg" xmlns:xlink="http://www.w3.org/1999/xlink" x="0px" y="0px"
	 viewBox="0 0 185 41" enable-background="new 0 0 185 41" xml:space="preserve">
<filter  filterUnits="objectBoundingBox" height="105%" id="a" width="100.5%" x="-.3%" y="-1.2%">
	<feOffset  dy="1" in="SourceAlpha" result="shadowOffsetOuter1"></feOffset>
	<feColorMatrix  in="shadowOffsetOuter1" result="shadowMatrixOuter1" values="0 0 0 0 0.8 0 0 0 0 0.8 0 0 0 0 0.8 0 0 0 1 0">
		</feColorMatrix>
	<feMerge>
		<feMergeNode  in="shadowMatrixOuter1"></feMergeNode>
		<feMergeNode  in="SourceGraphic"></feMergeNode>
	</feMerge>
</filter>
<title>Google@1x</title>
<g filter="url(#a)">
	<path fill="#4285F4" d="M2,0h181c1.1,0,2,0.9,2,2v36c0,1.1-0.9,2-2,2H2c-1.1,0-2-0.9-2-2V2C0,0.9,0.9,0,2,0z"/>
	<path fill="#FFFFFF" d="M3,1h34v38H3c-1.1,0-2-0.9-2-2V3C1,1.9,1.9,1,3,1z"/>
	<g>
		<path fill="#4285F4" d="M28,20.2c0-0.7-0.1-1.3-0.2-1.8h-8.6v3.3h5.1c-0.1,0.8-0.7,2.1-1.9,2.9l0,0.1l2.7,2.1l0.2,0
			C27,25.2,28,22.9,28,20.2"/>
		<path fill="#34A853" d="M19.2,28.9c2.5,0,4.6-0.8,6.1-2.2l-2.9-2.2c-0.8,0.5-1.8,0.9-3.2,0.9c-2.4,0-4.5-1.5-5.2-3.7l-0.1,0
			L11,23.9l0,0.1C12.5,26.9,15.6,28.9,19.2,28.9"/>
		<path fill="#FBBC05" d="M14,21.7c-0.2-0.6-0.3-1.2-0.3-1.8c0-0.6,0.1-1.2,0.3-1.8l0-0.1l-2.9-2.2l-0.1,0c-0.6,1.2-1,2.6-1,4
			c0,1.4,0.4,2.8,1,4L14,21.7"/>
		<path fill="#EB4335" d="M19.2,14.5c1.7,0,2.9,0.7,3.5,1.3l2.6-2.5c-1.6-1.4-3.7-2.3-6.1-2.3c-3.6,0-6.7,2-8.2,4.9l3,2.3
			C14.7,16,16.8,14.5,19.2,14.5"/>
	</g>
	<g enable-background="new    ">
		<path fill="#FFFFFF" d="M45.4,21.2l1.7-0.2c0.1,0.6,0.3,1,0.6,1.2s0.7,0.4,1.3,0.4c0.6,0,1-0.1,1.3-0.4s0.4-0.5,0.4-0.8
			c0-0.2-0.1-0.4-0.2-0.5s-0.3-0.3-0.6-0.4c-0.2-0.1-0.7-0.2-1.4-0.4c-0.9-0.2-1.6-0.5-2-0.8c-0.5-0.5-0.8-1-0.8-1.7
			c0-0.4,0.1-0.8,0.4-1.2s0.6-0.7,1.1-0.9s1-0.3,1.7-0.3c1.1,0,1.9,0.2,2.4,0.7s0.8,1.1,0.9,1.9l-1.7,0.1c-0.1-0.4-0.2-0.8-0.5-1
			s-0.6-0.3-1.1-0.3c-0.5,0-0.9,0.1-1.2,0.3c-0.2,0.1-0.3,0.3-0.3,0.5c0,0.2,0.1,0.4,0.3,0.5c0.2,0.2,0.8,0.4,1.6,0.6
			s1.5,0.4,1.9,0.6s0.7,0.5,0.9,0.9s0.3,0.8,0.3,1.4c0,0.5-0.1,1-0.4,1.4s-0.7,0.7-1.2,1s-1.1,0.3-1.9,0.3c-1.1,0-1.9-0.3-2.5-0.8
			S45.5,22.2,45.4,21.2z"/>
		<path fill="#FFFFFF" d="M53.9,16.9v-1.5h1.6v1.5H53.9z M53.9,24v-6.2h1.6V24H53.9z"/>
		<path fill="#FFFFFF" d="M57,24.4l1.9,0.2c0,0.2,0.1,0.4,0.2,0.5c0.2,0.1,0.4,0.2,0.7,0.2c0.4,0,0.8-0.1,1-0.2
			c0.1-0.1,0.3-0.2,0.3-0.4c0.1-0.1,0.1-0.4,0.1-0.8V23c-0.5,0.7-1.1,1-1.9,1c-0.8,0-1.5-0.4-2-1.1c-0.4-0.6-0.6-1.3-0.6-2.1
			c0-1,0.3-1.8,0.8-2.4s1.1-0.8,1.9-0.8c0.8,0,1.4,0.3,1.9,1v-0.9h1.5v5.6c0,0.7-0.1,1.3-0.2,1.6s-0.3,0.6-0.5,0.9s-0.5,0.4-0.9,0.5
			s-0.8,0.2-1.4,0.2c-1.1,0-1.8-0.2-2.2-0.5S57,25.2,57,24.6C57,24.6,57,24.5,57,24.4z M58.5,20.8c0,0.7,0.1,1.1,0.4,1.5
			s0.6,0.5,0.9,0.5c0.4,0,0.7-0.2,1-0.5s0.4-0.8,0.4-1.4c0-0.6-0.1-1.1-0.4-1.4s-0.6-0.5-1-0.5c-0.4,0-0.7,0.2-1,0.5
			S58.5,20.1,58.5,20.8z"/>
		<path fill="#FFFFFF" d="M70.2,24h-1.6v-3.2c0-0.7,0-1.1-0.1-1.3s-0.2-0.4-0.3-0.5s-0.3-0.2-0.6-0.2c-0.3,0-0.5,0.1-0.8,0.2
			s-0.4,0.4-0.5,0.6s-0.1,0.7-0.1,1.4V24h-1.6v-6.2H66v0.9c0.5-0.7,1.2-1.1,2.1-1.1c0.4,0,0.7,0.1,1,0.2s0.5,0.3,0.7,0.5
			s0.3,0.4,0.3,0.7s0.1,0.6,0.1,1.1V24z"/>
		<path fill="#FFFFFF" d="M75.2,16.9v-1.5h1.6v1.5H75.2z M75.2,24v-6.2h1.6V24H75.2z"/>
		<path fill="#FFFFFF" d="M84.2,24h-1.6v-3.2c0-0.7,0-1.1-0.1-1.3s-0.2-0.4-0.3-0.5s-0.3-0.2-0.6-0.2c-0.3,0-0.5,0.1-0.8,0.2
			s-0.4,0.4-0.5,0.6s-0.1,0.7-0.1,1.4V24h-1.6v-6.2H80v0.9c0.5-0.7,1.2-1.1,2.1-1.1c0.4,0,0.7,0.1,1,0.2s0.5,0.3,0.7,0.5
			s0.3,0.4,0.3,0.7s0.1,0.6,0.1,1.1V24z"/>
		<path fill="#FFFFFF" d="M90.4,24l-2-6.2H90l1.2,4.1l1.1-4.1h1.6l1,4.1l1.2-4.1h1.6l-2,6.2h-1.6L93,20L92,24H90.4z"/>
		<path fill="#FFFFFF" d="M98.5,16.9v-1.5h1.6v1.5H98.5z M98.5,24v-6.2h1.6V24H98.5z"/>
		<path fill="#FFFFFF" d="M104.7,17.8v1.3h-1.1v2.5c0,0.5,0,0.8,0,0.9s0.1,0.2,0.1,0.2s0.2,0.1,0.3,0.1c0.2,0,0.4-0.1,0.7-0.2
			l0.1,1.3c-0.4,0.2-0.8,0.2-1.3,0.2c-0.3,0-0.6,0-0.8-0.1s-0.4-0.2-0.5-0.4S102,23.2,102,23c0-0.2-0.1-0.6-0.1-1.2v-2.7h-0.8v-1.3
			h0.8v-1.2l1.7-1v2.2H104.7z"/>
		<path fill="#FFFFFF" d="M107.5,15.4v3.2c0.5-0.6,1.2-0.9,1.9-0.9c0.4,0,0.7,0.1,1,0.2s0.5,0.3,0.7,0.5s0.3,0.5,0.3,0.7
			s0.1,0.7,0.1,1.2V24h-1.6v-3.3c0-0.7,0-1.1-0.1-1.2s-0.2-0.3-0.3-0.4s-0.4-0.2-0.6-0.2c-0.3,0-0.5,0.1-0.7,0.2s-0.4,0.3-0.5,0.6
			s-0.1,0.7-0.1,1.2V24h-1.6v-8.6H107.5z"/>
		<path fill="#FFFFFF" d="M120.5,20.8v-1.4h3.7v3.4c-0.4,0.4-0.9,0.7-1.6,0.9s-1.4,0.4-2.1,0.4c-0.9,0-1.7-0.2-2.3-0.6
			s-1.2-0.9-1.5-1.6s-0.5-1.5-0.5-2.3c0-0.9,0.2-1.7,0.6-2.4s0.9-1.2,1.6-1.6c0.6-0.3,1.2-0.4,2.1-0.4c1.1,0,1.9,0.2,2.5,0.7
			s1,1.1,1.2,1.9l-1.7,0.3c-0.1-0.4-0.3-0.8-0.7-1s-0.8-0.4-1.3-0.4c-0.8,0-1.4,0.2-1.8,0.7s-0.7,1.2-0.7,2.1c0,1,0.2,1.8,0.7,2.3
			s1,0.8,1.8,0.8c0.4,0,0.7-0.1,1.1-0.2s0.7-0.3,0.9-0.5v-1.1H120.5z"/>
		<path fill="#FFFFFF" d="M125.5,20.8c0-0.5,0.1-1.1,0.4-1.6s0.7-0.9,1.1-1.2s1-0.4,1.7-0.4c0.9,0,1.7,0.3,2.3,0.9s0.9,1.4,0.9,2.3
			c0,0.9-0.3,1.7-0.9,2.3s-1.4,0.9-2.3,0.9c-0.6,0-1.1-0.1-1.6-0.4s-0.9-0.6-1.2-1.1S125.5,21.5,125.5,20.8z M127.2,20.9
			c0,0.6,0.1,1.1,0.4,1.4s0.7,0.5,1.1,0.5s0.8-0.2,1.1-0.5s0.4-0.8,0.4-1.4c0-0.6-0.1-1.1-0.4-1.4s-0.7-0.5-1.1-0.5
			s-0.8,0.2-1.1,0.5S127.2,20.3,127.2,20.9z"/>
		<path fill="#FFFFFF" d="M132.8,20.8c0-0.5,0.1-1.1,0.4-1.6s0.7-0.9,1.1-1.2s1-0.4,1.7-0.4c0.9,0,1.7,0.3,2.3,0.9s0.9,1.4,0.9,2.3
			c0,0.9-0.3,1.7-0.9,2.3s-1.4,0.9-2.3,0.9c-0.6,0-1.1-0.1-1.6-0.4s-0.9-0.6-1.2-1.1S132.8,21.5,132.8,20.8z M134.5,20.9
			c0,0.6,0.1,1.1,0.4,1.4s0.7,0.5,1.1,0.5s0.8-0.2,1.1-0.5s0.4-0.8,0.4-1.4c0-0.6-0.1-1.1-0.4-1.4S136.4,19,136,19s-0.8,0.2-1.1,0.5
			S134.5,20.3,134.5,20.9z"/>
		<path fill="#FFFFFF" d="M140.4,24.4l1.9,0.2c0,0.2,0.1,0.4,0.2,0.5c0.2,0.1,0.4,0.2,0.7,0.2c0.4,0,0.8-0.1,1-0.2
			c0.1-0.1,0.3-0.2,0.3-0.4c0.1-0.1,0.1-0.4,0.1-0.8V23c-0.5,0.7-1.1,1-1.9,1c-0.8,0-1.5-0.4-2-1.1c-0.4-0.6-0.6-1.3-0.6-2.1
			c0-1,0.3-1.8,0.8-2.4s1.1-0.8,1.9-0.8c0.8,0,1.4,0.3,1.9,1v-0.9h1.5v5.6c0,0.7-0.1,1.3-0.2,1.6s-0.3,0.6-0.5,0.9s-0.5,0.4-0.9,0.5
			s-0.8,0.2-1.4,0.2c-1.1,0-1.8-0.2-2.2-0.5s-0.7-0.8-0.7-1.4C140.4,24.6,140.4,24.5,140.4,24.4z M141.8,20.8c0,0.7,0.1,1.1,0.4,1.5
			s0.6,0.5,0.9,0.5c0.4,0,0.7-0.2,1-0.5s0.4-0.8,0.4-1.4c0-0.6-0.1-1.1-0.4-1.4s-0.6-0.5-1-0.5c-0.4,0-0.7,0.2-1,0.5
			S141.8,20.1,141.8,20.8z"/>
		<path fill="#FFFFFF" d="M147.8,24v-8.6h1.6V24H147.8z"/>
		<path fill="#FFFFFF" d="M154.8,22l1.6,0.3c-0.2,0.6-0.5,1.1-1,1.4s-1,0.5-1.7,0.5c-1.1,0-1.9-0.4-2.4-1.1
			c-0.4-0.6-0.6-1.3-0.6-2.1c0-1,0.3-1.8,0.8-2.4s1.2-0.9,2-0.9c0.9,0,1.7,0.3,2.2,0.9s0.8,1.5,0.8,2.8h-4.1c0,0.5,0.1,0.9,0.4,1.1
			s0.6,0.4,0.9,0.4c0.3,0,0.5-0.1,0.7-0.2S154.7,22.3,154.8,22z M154.9,20.4c0-0.5-0.1-0.8-0.4-1.1s-0.5-0.4-0.9-0.4
			c-0.4,0-0.7,0.1-0.9,0.4s-0.3,0.6-0.3,1.1H154.9z"/>
	</g>
</g>
</svg>
